<svg width="160" height="36" viewBox="0 0 160 36" fill="none" xmlns="http://www.w3.org/2000/svg">
<g clip-path="url(#clip0)">
<path d="M140 19L145 22V28L140 31L135 28V22L140 19Z" fill="#2DCE89"/>
<path d="M41.5566 17.9043C41.5566 22.1348 40.3496 25.375 37.9355 27.625C35.5332 29.875 32.0586 31 27.5117 31H20.2344V5.30078H28.3027C32.498 5.30078 35.7559 6.4082 38.0762 8.62305C40.3965 10.8379 41.5566 13.9316 41.5566 17.9043ZM35.8965 18.0449C35.8965 12.5254 33.459 9.76562 28.584 9.76562H25.6836V26.5H28.0215C33.2715 26.5 35.8965 23.6816 35.8965 18.0449ZM54.5996 14.793C53.4629 14.793 52.5723 15.1562 51.9277 15.8828C51.2832 16.5977 50.9141 17.6172 50.8203 18.9414H58.3438C58.3203 17.6172 57.9746 16.5977 57.3066 15.8828C56.6387 15.1562 55.7363 14.793 54.5996 14.793ZM55.3555 31.3516C52.1914 31.3516 49.7188 30.4785 47.9375 28.7324C46.1562 26.9863 45.2656 24.5137 45.2656 21.3145C45.2656 18.0215 46.0859 15.4785 47.7266 13.6855C49.3789 11.8809 51.6582 10.9785 54.5645 10.9785C57.3418 10.9785 59.5039 11.7695 61.0508 13.3516C62.5977 14.9336 63.3711 17.1191 63.3711 19.9082V22.5098H50.6973C50.7559 24.0332 51.207 25.2227 52.0508 26.0781C52.8945 26.9336 54.0781 27.3613 55.6016 27.3613C56.7852 27.3613 57.9043 27.2383 58.959 26.9922C60.0137 26.7461 61.1152 26.3535 62.2637 25.8145V29.9629C61.3262 30.4316 60.3242 30.7773 59.2578 31C58.1914 31.2344 56.8906 31.3516 55.3555 31.3516ZM81.4062 31H65.8848V27.8359L74.9902 15.4434H66.4297V11.3477H81.0898V14.8281L72.2305 26.9043H81.4062V31ZM90.459 20.3125L92.7969 17.3242L98.2988 11.3477H104.346L96.541 19.873L104.82 31H98.6328L92.9727 23.0371L90.6699 24.8828V31H85.3086V3.64844H90.6699V15.8477L90.3887 20.3125H90.459ZM107.404 6.26758C107.404 4.52148 108.377 3.64844 110.322 3.64844C112.268 3.64844 113.24 4.52148 113.24 6.26758C113.24 7.09961 112.994 7.75 112.502 8.21875C112.021 8.67578 111.295 8.9043 110.322 8.9043C108.377 8.9043 107.404 8.02539 107.404 6.26758ZM112.994 31H107.633V11.3477H112.994V31ZM126.916 27.0801C127.854 27.0801 128.979 26.875 130.291 26.4648V30.4551C128.955 31.0527 127.314 31.3516 125.369 31.3516C123.225 31.3516 121.66 30.8125 120.676 29.7344C119.703 28.6445 119.217 27.0156 119.217 24.8477V15.373H116.65V13.1055L119.604 11.3125L121.15 7.16406H124.578V11.3477H130.08V15.373H124.578V24.8477C124.578 25.6094 124.789 26.1719 125.211 26.5352C125.645 26.8984 126.213 27.0801 126.916 27.0801Z" fill="#32325D"/>
</g>
<defs>
<clipPath id="clip0">
<rect width="160" height="36" fill="white"/>
</clipPath>
</defs>
</svg>
